<mxfile host="Electron" modified="2023-05-15T07:37:23.417Z" agent="Mozilla/5.0 (Windows NT 10.0; Win64; x64) AppleWebKit/537.36 (KHTML, like Gecko) draw.io/21.2.8 Chrome/112.0.5615.165 Electron/24.2.0 Safari/537.36" etag="FnI25colbbh4AnpWuZ_h" version="21.2.8" type="device">
  <diagram name="Page-1" id="03018318-947c-dd8e-b7a3-06fadd420f32">
    <mxGraphModel dx="1098" dy="828" grid="1" gridSize="10" guides="1" tooltips="1" connect="1" arrows="1" fold="1" page="1" pageScale="1" pageWidth="1100" pageHeight="850" background="#ffffff" math="0" shadow="0">
      <root>
        <mxCell id="0" />
        <mxCell id="1" parent="0" />
        <mxCell id="677b7b8949515195-2" value="LOGO" style="whiteSpace=wrap;html=1;rounded=0;shadow=0;labelBackgroundColor=none;strokeWidth=1;fontFamily=Verdana;fontSize=28;align=center;comic=1;" parent="1" vertex="1">
          <mxGeometry x="40" y="60" width="190" height="50" as="geometry" />
        </mxCell>
        <mxCell id="677b7b8949515195-3" value="Search" style="strokeWidth=1;shadow=0;dashed=0;align=center;html=1;shape=mxgraph.mockup.forms.searchBox;strokeColor=#999999;mainText=;strokeColor2=#008cff;fontColor=#666666;fontSize=17;align=left;spacingLeft=3;rounded=0;labelBackgroundColor=none;comic=1;" parent="1" vertex="1">
          <mxGeometry x="790" y="170" width="220" height="30" as="geometry" />
        </mxCell>
        <mxCell id="677b7b8949515195-9" value="" style="line;strokeWidth=1;html=1;rounded=0;shadow=0;labelBackgroundColor=none;fillColor=none;fontFamily=Verdana;fontSize=14;fontColor=#000000;align=center;comic=1;" parent="1" vertex="1">
          <mxGeometry x="20" y="140" width="1060" height="10" as="geometry" />
        </mxCell>
        <mxCell id="677b7b8949515195-10" value="" style="whiteSpace=wrap;html=1;rounded=0;shadow=0;labelBackgroundColor=none;strokeWidth=1;fillColor=none;fontFamily=Verdana;fontSize=12;align=center;comic=1;" parent="1" vertex="1">
          <mxGeometry x="20" y="160" width="1040" height="50" as="geometry" />
        </mxCell>
        <mxCell id="677b7b8949515195-11" value="&lt;b style=&quot;font-size: 28px;&quot;&gt;course details&lt;br style=&quot;font-size: 28px;&quot;&gt;&lt;br style=&quot;font-size: 28px;&quot;&gt;&lt;/b&gt;" style="text;html=1;points=[];align=left;verticalAlign=top;spacingTop=-4;fontSize=28;fontFamily=Verdana" parent="1" vertex="1">
          <mxGeometry x="320" y="75" width="60" height="20" as="geometry" />
        </mxCell>
        <mxCell id="677b7b8949515195-12" value="&lt;b&gt;about us&lt;/b&gt;" style="text;html=1;points=[];align=left;verticalAlign=top;spacingTop=-4;fontSize=14;fontFamily=Verdana" parent="1" vertex="1">
          <mxGeometry x="720" y="90" width="60" height="20" as="geometry" />
        </mxCell>
        <mxCell id="677b7b8949515195-13" value="&lt;b&gt;enquiry form&lt;/b&gt;" style="text;html=1;points=[];align=left;verticalAlign=top;spacingTop=-4;fontSize=14;fontFamily=Verdana" parent="1" vertex="1">
          <mxGeometry x="810" y="90" width="60" height="20" as="geometry" />
        </mxCell>
        <mxCell id="677b7b8949515195-14" value="&lt;b&gt;contact page&lt;/b&gt;" style="text;html=1;points=[];align=left;verticalAlign=top;spacingTop=-4;fontSize=14;fontFamily=Verdana" parent="1" vertex="1">
          <mxGeometry x="925" y="90" width="60" height="20" as="geometry" />
        </mxCell>
        <mxCell id="677b7b8949515195-15" value="&lt;div style=&quot;text-align: justify;&quot;&gt;&lt;h2 style=&quot;box-sizing: border-box; margin-top: 0px; margin-bottom: 0.5rem; font-family: Roboto, -apple-system, BlinkMacSystemFont, &amp;quot;Segoe UI&amp;quot;, &amp;quot;Helvetica Neue&amp;quot;, Arial, sans-serif, &amp;quot;Apple Color Emoji&amp;quot;, &amp;quot;Segoe UI Emoji&amp;quot;, &amp;quot;Segoe UI Symbol&amp;quot;; font-weight: 500; line-height: 1.2; color: rgb(53, 62, 78); text-align: left; background-color: rgb(240, 240, 240);&quot;&gt;22470VIC - Certificate II in Engineering Studies&lt;/h2&gt;&lt;a style=&quot;box-sizing: border-box; color: rgb(109, 114, 124); text-decoration-line: none; background-color: rgb(240, 240, 240); transition: all 0.4s ease-in-out 0s; font-family: Roboto, -apple-system, BlinkMacSystemFont, &amp;quot;Segoe UI&amp;quot;, &amp;quot;Helvetica Neue&amp;quot;, Arial, sans-serif, &amp;quot;Apple Color Emoji&amp;quot;, &amp;quot;Segoe UI Emoji&amp;quot;, &amp;quot;Segoe UI Symbol&amp;quot;; text-align: left;&quot; title=&quot;View details for qualification code UEE22020&quot; href=&quot;https://training.gov.au/Training/Details/UEE22020&quot;&gt;&lt;/a&gt;&lt;p style=&quot;box-sizing: border-box; margin-top: 0px; margin-bottom: 1rem; line-height: 1.5; color: rgb(109, 114, 124); font-family: Roboto, -apple-system, BlinkMacSystemFont, &amp;quot;Segoe UI&amp;quot;, &amp;quot;Helvetica Neue&amp;quot;, Arial, sans-serif, &amp;quot;Apple Color Emoji&amp;quot;, &amp;quot;Segoe UI Emoji&amp;quot;, &amp;quot;Segoe UI Symbol&amp;quot;; background-color: rgb(240, 240, 240);&quot; align=&quot;left&quot;&gt;&lt;span style=&quot;box-sizing: border-box;&quot; lang=&quot;en&quot;&gt;Graduates from Certificate II in Engineering Studies will have basic factual, technical and procedural knowledge in a defined area of work and learning covering a range of engineering streams and related area. The aim of this course is to provide pre-employment training and a pathway into the engineering, manufacturing or related industries.&lt;/span&gt;&lt;span style=&quot;box-sizing: border-box;&quot; lang=&quot;en-au&quot;&gt;&lt;/span&gt;&lt;/p&gt;&lt;p style=&quot;box-sizing: border-box; margin-top: 0px; margin-bottom: 1rem; line-height: 1.5; color: rgb(109, 114, 124); font-family: Roboto, -apple-system, BlinkMacSystemFont, &amp;quot;Segoe UI&amp;quot;, &amp;quot;Helvetica Neue&amp;quot;, Arial, sans-serif, &amp;quot;Apple Color Emoji&amp;quot;, &amp;quot;Segoe UI Emoji&amp;quot;, &amp;quot;Segoe UI Symbol&amp;quot;; background-color: rgb(240, 240, 240);&quot; align=&quot;left&quot;&gt;&lt;span style=&quot;box-sizing: border-box;&quot; lang=&quot;en&quot;&gt;&lt;/span&gt;&lt;/p&gt;&lt;h1 style=&quot;box-sizing: border-box; margin-top: 0px; margin-bottom: 0.5rem; font-family: Roboto, -apple-system, BlinkMacSystemFont, &amp;quot;Segoe UI&amp;quot;, &amp;quot;Helvetica Neue&amp;quot;, Arial, sans-serif, &amp;quot;Apple Color Emoji&amp;quot;, &amp;quot;Segoe UI Emoji&amp;quot;, &amp;quot;Segoe UI Symbol&amp;quot;; font-weight: 500; line-height: 1.2; color: rgb(53, 62, 78); text-align: left; background-color: rgb(240, 240, 240);&quot;&gt;course2:&lt;/h1&gt;&lt;h2 style=&quot;box-sizing: border-box; margin-top: 0px; margin-bottom: 0.5rem; font-family: Roboto, -apple-system, BlinkMacSystemFont, &amp;quot;Segoe UI&amp;quot;, &amp;quot;Helvetica Neue&amp;quot;, Arial, sans-serif, &amp;quot;Apple Color Emoji&amp;quot;, &amp;quot;Segoe UI Emoji&amp;quot;, &amp;quot;Segoe UI Symbol&amp;quot;; font-weight: 500; line-height: 1.2; color: rgb(53, 62, 78); text-align: left; background-color: rgb(240, 240, 240);&quot;&gt;10809NAT - Course in Electrician - Minimum Australian Context Gap&lt;/h2&gt;&lt;a style=&quot;box-sizing: border-box; color: rgb(109, 114, 124); text-decoration-line: none; background-color: rgb(240, 240, 240); transition: all 0.4s ease-in-out 0s; font-family: Roboto, -apple-system, BlinkMacSystemFont, &amp;quot;Segoe UI&amp;quot;, &amp;quot;Helvetica Neue&amp;quot;, Arial, sans-serif, &amp;quot;Apple Color Emoji&amp;quot;, &amp;quot;Segoe UI Emoji&amp;quot;, &amp;quot;Segoe UI Symbol&amp;quot;; text-align: left;&quot; title=&quot;View details for qualification code AUR20220&quot; href=&quot;https://training.gov.au/Training/Details/AUR20220&quot;&gt;&lt;/a&gt;&lt;span style=&quot;box-sizing: border-box; color: rgb(109, 114, 124); font-family: Roboto, -apple-system, BlinkMacSystemFont, &amp;quot;Segoe UI&amp;quot;, &amp;quot;Helvetica Neue&amp;quot;, Arial, sans-serif, &amp;quot;Apple Color Emoji&amp;quot;, &amp;quot;Segoe UI Emoji&amp;quot;, &amp;quot;Segoe UI Symbol&amp;quot;; text-align: left; background-color: rgb(240, 240, 240);&quot; lang=&quot;en-au&quot;&gt;&lt;/span&gt;&lt;p style=&quot;box-sizing: border-box; margin-top: 0px; margin-bottom: 1rem; line-height: 1.5; color: rgb(109, 114, 124); font-family: Roboto, -apple-system, BlinkMacSystemFont, &amp;quot;Segoe UI&amp;quot;, &amp;quot;Helvetica Neue&amp;quot;, Arial, sans-serif, &amp;quot;Apple Color Emoji&amp;quot;, &amp;quot;Segoe UI Emoji&amp;quot;, &amp;quot;Segoe UI Symbol&amp;quot;; background-color: rgb(240, 240, 240);&quot; align=&quot;left&quot;&gt;&lt;span style=&quot;box-sizing: border-box;&quot; lang=&quot;en&quot;&gt;This course provides Minimum Australian Context Gap training to holders of an Offshore Technical Skills Record (OTSR) for the UEE30811 Certificate III in Electrotechnology Electrician (or successor).&lt;/span&gt;&lt;span style=&quot;box-sizing: border-box;&quot; lang=&quot;en-au&quot;&gt;&lt;/span&gt;&lt;/p&gt;&lt;p style=&quot;box-sizing: border-box; margin-top: 0px; margin-bottom: 1rem; line-height: 1.5; color: rgb(109, 114, 124); font-family: Roboto, -apple-system, BlinkMacSystemFont, &amp;quot;Segoe UI&amp;quot;, &amp;quot;Helvetica Neue&amp;quot;, Arial, sans-serif, &amp;quot;Apple Color Emoji&amp;quot;, &amp;quot;Segoe UI Emoji&amp;quot;, &amp;quot;Segoe UI Symbol&amp;quot;; background-color: rgb(240, 240, 240);&quot; align=&quot;left&quot;&gt;&lt;span style=&quot;box-sizing: border-box;&quot; lang=&quot;en&quot;&gt;course3:&lt;/span&gt;&lt;/p&gt;&lt;h1 style=&quot;box-sizing: border-box; margin-top: 0px; margin-bottom: 0.5rem; font-family: Roboto, -apple-system, BlinkMacSystemFont, &amp;quot;Segoe UI&amp;quot;, &amp;quot;Helvetica Neue&amp;quot;, Arial, sans-serif, &amp;quot;Apple Color Emoji&amp;quot;, &amp;quot;Segoe UI Emoji&amp;quot;, &amp;quot;Segoe UI Symbol&amp;quot;; font-weight: 500; line-height: 1.2; color: rgb(53, 62, 78); text-align: left; background-color: rgb(240, 240, 240);&quot;&gt;&lt;/h1&gt;&lt;h2 style=&quot;box-sizing: border-box; margin-top: 0px; margin-bottom: 0.5rem; font-family: Roboto, -apple-system, BlinkMacSystemFont, &amp;quot;Segoe UI&amp;quot;, &amp;quot;Helvetica Neue&amp;quot;, Arial, sans-serif, &amp;quot;Apple Color Emoji&amp;quot;, &amp;quot;Segoe UI Emoji&amp;quot;, &amp;quot;Segoe UI Symbol&amp;quot;; font-weight: 500; line-height: 1.2; color: rgb(53, 62, 78); text-align: left; background-color: rgb(240, 240, 240);&quot;&gt;22338VIC - Certificate II in Building and Construction Pre-apprenticeship&lt;/h2&gt;&lt;a style=&quot;box-sizing: border-box; color: rgb(109, 114, 124); text-decoration-line: none; background-color: rgb(240, 240, 240); transition: all 0.4s ease-in-out 0s; font-family: Roboto, -apple-system, BlinkMacSystemFont, &amp;quot;Segoe UI&amp;quot;, &amp;quot;Helvetica Neue&amp;quot;, Arial, sans-serif, &amp;quot;Apple Color Emoji&amp;quot;, &amp;quot;Segoe UI Emoji&amp;quot;, &amp;quot;Segoe UI Symbol&amp;quot;; text-align: left;&quot; title=&quot;View details for qualification code CPC10120&quot; href=&quot;https://training.gov.au/Training/Details/CPC10120&quot;&gt;&lt;/a&gt;&lt;span style=&quot;box-sizing: border-box; color: rgb(109, 114, 124); font-family: Roboto, -apple-system, BlinkMacSystemFont, &amp;quot;Segoe UI&amp;quot;, &amp;quot;Helvetica Neue&amp;quot;, Arial, sans-serif, &amp;quot;Apple Color Emoji&amp;quot;, &amp;quot;Segoe UI Emoji&amp;quot;, &amp;quot;Segoe UI Symbol&amp;quot;; text-align: left; background-color: rgb(240, 240, 240);&quot; lang=&quot;en-au&quot;&gt;&lt;/span&gt;&lt;p style=&quot;box-sizing: border-box; margin-top: 0px; margin-bottom: 1rem; line-height: 1.5; color: rgb(109, 114, 124); font-family: Roboto, -apple-system, BlinkMacSystemFont, &amp;quot;Segoe UI&amp;quot;, &amp;quot;Helvetica Neue&amp;quot;, Arial, sans-serif, &amp;quot;Apple Color Emoji&amp;quot;, &amp;quot;Segoe UI Emoji&amp;quot;, &amp;quot;Segoe UI Symbol&amp;quot;; background-color: rgb(240, 240, 240);&quot; align=&quot;left&quot;&gt;&lt;span style=&quot;box-sizing: border-box;&quot; lang=&quot;en&quot;&gt;The aim of the Certificate II in Building and Construction Pre-apprenticeship is to provide learners with basic industry specific skills and knowledge to enable transition into an apprenticeship within the building and construction industries at the Certificate III level.&lt;/span&gt;&lt;span style=&quot;box-sizing: border-box;&quot; lang=&quot;en-au&quot;&gt;&lt;/span&gt;&lt;/p&gt;&lt;p style=&quot;box-sizing: border-box; margin-top: 0px; margin-bottom: 1rem; line-height: 1.5; color: rgb(109, 114, 124); font-family: Roboto, -apple-system, BlinkMacSystemFont, &amp;quot;Segoe UI&amp;quot;, &amp;quot;Helvetica Neue&amp;quot;, Arial, sans-serif, &amp;quot;Apple Color Emoji&amp;quot;, &amp;quot;Segoe UI Emoji&amp;quot;, &amp;quot;Segoe UI Symbol&amp;quot;; background-color: rgb(240, 240, 240);&quot; align=&quot;left&quot;&gt;&lt;span style=&quot;box-sizing: border-box;&quot; lang=&quot;en&quot;&gt;course4:&lt;/span&gt;&lt;/p&gt;&lt;h2 style=&quot;box-sizing: border-box; margin-top: 0px; margin-bottom: 0.5rem; font-family: Roboto, -apple-system, BlinkMacSystemFont, &amp;quot;Segoe UI&amp;quot;, &amp;quot;Helvetica Neue&amp;quot;, Arial, sans-serif, &amp;quot;Apple Color Emoji&amp;quot;, &amp;quot;Segoe UI Emoji&amp;quot;, &amp;quot;Segoe UI Symbol&amp;quot;; font-weight: 500; line-height: 1.2; color: rgb(53, 62, 78); text-align: left; background-color: rgb(240, 240, 240);&quot;&gt;52887WA - Certificate II in Plumbing&lt;/h2&gt;&lt;a style=&quot;box-sizing: border-box; color: rgb(109, 114, 124); text-decoration-line: none; background-color: rgb(240, 240, 240); transition: all 0.4s ease-in-out 0s; font-family: Roboto, -apple-system, BlinkMacSystemFont, &amp;quot;Segoe UI&amp;quot;, &amp;quot;Helvetica Neue&amp;quot;, Arial, sans-serif, &amp;quot;Apple Color Emoji&amp;quot;, &amp;quot;Segoe UI Emoji&amp;quot;, &amp;quot;Segoe UI Symbol&amp;quot;; text-align: left;&quot; title=&quot;View details for qualification code MEM20422&quot; href=&quot;https://training.gov.au/Training/Details/MEM20422&quot;&gt;&lt;/a&gt;&lt;span style=&quot;box-sizing: border-box; color: rgb(109, 114, 124); font-family: Roboto, -apple-system, BlinkMacSystemFont, &amp;quot;Segoe UI&amp;quot;, &amp;quot;Helvetica Neue&amp;quot;, Arial, sans-serif, &amp;quot;Apple Color Emoji&amp;quot;, &amp;quot;Segoe UI Emoji&amp;quot;, &amp;quot;Segoe UI Symbol&amp;quot;; text-align: left; background-color: rgb(240, 240, 240);&quot; lang=&quot;en-au&quot;&gt;&lt;/span&gt;&lt;p style=&quot;box-sizing: border-box; margin-top: 0px; margin-bottom: 1rem; line-height: 1.5; color: rgb(109, 114, 124); font-family: Roboto, -apple-system, BlinkMacSystemFont, &amp;quot;Segoe UI&amp;quot;, &amp;quot;Helvetica Neue&amp;quot;, Arial, sans-serif, &amp;quot;Apple Color Emoji&amp;quot;, &amp;quot;Segoe UI Emoji&amp;quot;, &amp;quot;Segoe UI Symbol&amp;quot;; background-color: rgb(240, 240, 240);&quot; align=&quot;left&quot;&gt;&lt;span style=&quot;box-sizing: border-box;&quot; lang=&quot;en&quot;&gt;The Certificate II in Plumbing is a pre-entry course for students seeking to gain an apprenticeship in the plumbing sector.&amp;nbsp;&lt;/span&gt;&lt;span style=&quot;box-sizing: border-box;&quot; lang=&quot;en-au&quot;&gt;&lt;/span&gt;&lt;/p&gt;&lt;p style=&quot;box-sizing: border-box; margin-top: 0px; margin-bottom: 1rem; line-height: 1.5; color: rgb(109, 114, 124); font-family: Roboto, -apple-system, BlinkMacSystemFont, &amp;quot;Segoe UI&amp;quot;, &amp;quot;Helvetica Neue&amp;quot;, Arial, sans-serif, &amp;quot;Apple Color Emoji&amp;quot;, &amp;quot;Segoe UI Emoji&amp;quot;, &amp;quot;Segoe UI Symbol&amp;quot;; background-color: rgb(240, 240, 240);&quot; align=&quot;left&quot;&gt;&lt;span style=&quot;box-sizing: border-box;&quot; lang=&quot;en&quot;&gt;course5:&lt;/span&gt;&lt;/p&gt;&lt;h2 style=&quot;box-sizing: border-box; margin-top: 0px; margin-bottom: 0.5rem; font-family: Roboto, -apple-system, BlinkMacSystemFont, &amp;quot;Segoe UI&amp;quot;, &amp;quot;Helvetica Neue&amp;quot;, Arial, sans-serif, &amp;quot;Apple Color Emoji&amp;quot;, &amp;quot;Segoe UI Emoji&amp;quot;, &amp;quot;Segoe UI Symbol&amp;quot;; font-weight: 500; line-height: 1.2; color: rgb(53, 62, 78); text-align: left; background-color: rgb(240, 240, 240);&quot;&gt;11054NAT - Certificate II in Plumbing Services.&lt;/h2&gt;&lt;h2 style=&quot;box-sizing: border-box; margin-top: 0px; margin-bottom: 0.5rem; font-family: Roboto, -apple-system, BlinkMacSystemFont, &amp;quot;Segoe UI&amp;quot;, &amp;quot;Helvetica Neue&amp;quot;, Arial, sans-serif, &amp;quot;Apple Color Emoji&amp;quot;, &amp;quot;Segoe UI Emoji&amp;quot;, &amp;quot;Segoe UI Symbol&amp;quot;; font-weight: 500; line-height: 1.2; color: rgb(53, 62, 78); text-align: left; background-color: rgb(240, 240, 240);&quot;&gt;It is specifically designed to develop the foundational skills and knowledge within the fields of plumbing and provide students with exposure to the industry.&lt;/h2&gt;&lt;/div&gt;" style="whiteSpace=wrap;html=1;rounded=0;shadow=0;labelBackgroundColor=none;strokeWidth=1;fontFamily=Verdana;fontSize=12;align=center;verticalAlign=top;spacing=10;comic=1;" parent="1" vertex="1">
          <mxGeometry x="295" y="253" width="510" height="390" as="geometry" />
        </mxCell>
        <mxCell id="677b7b8949515195-25" value="" style="whiteSpace=wrap;html=1;rounded=0;shadow=0;labelBackgroundColor=none;strokeWidth=1;fillColor=none;fontFamily=Verdana;fontSize=12;align=center;comic=1;" parent="1" vertex="1">
          <mxGeometry x="840" y="230" width="230" height="400" as="geometry" />
        </mxCell>
        <mxCell id="677b7b8949515195-26" value="" style="whiteSpace=wrap;html=1;rounded=0;shadow=0;labelBackgroundColor=none;strokeWidth=1;fillColor=none;fontFamily=Verdana;fontSize=12;align=center;comic=1;" parent="1" vertex="1">
          <mxGeometry x="840" y="643" width="230" height="180" as="geometry" />
        </mxCell>
        <mxCell id="677b7b8949515195-42" value="External Links" style="text;html=1;points=[];align=left;verticalAlign=top;spacingTop=-4;fontSize=14;fontFamily=Verdana" parent="1" vertex="1">
          <mxGeometry x="860" y="653" width="170" height="20" as="geometry" />
        </mxCell>
        <mxCell id="677b7b8949515195-44" value="Feature 1" style="text;html=1;points=[];align=left;verticalAlign=top;spacingTop=-4;fontSize=14;fontFamily=Verdana" parent="1" vertex="1">
          <mxGeometry x="860" y="250" width="170" height="20" as="geometry" />
        </mxCell>
        <mxCell id="677b7b8949515195-45" value="Feature 2" style="text;html=1;points=[];align=left;verticalAlign=top;spacingTop=-4;fontSize=14;fontFamily=Verdana" parent="1" vertex="1">
          <mxGeometry x="860" y="285" width="170" height="20" as="geometry" />
        </mxCell>
        <mxCell id="677b7b8949515195-46" value="Feature 3" style="text;html=1;points=[];align=left;verticalAlign=top;spacingTop=-4;fontSize=14;fontFamily=Verdana" parent="1" vertex="1">
          <mxGeometry x="860" y="320" width="170" height="20" as="geometry" />
        </mxCell>
        <mxCell id="677b7b8949515195-47" value="Feature 4" style="text;html=1;points=[];align=left;verticalAlign=top;spacingTop=-4;fontSize=14;fontFamily=Verdana" parent="1" vertex="1">
          <mxGeometry x="860" y="355" width="170" height="20" as="geometry" />
        </mxCell>
        <mxCell id="677b7b8949515195-48" value="Feature 5" style="text;html=1;points=[];align=left;verticalAlign=top;spacingTop=-4;fontSize=14;fontFamily=Verdana" parent="1" vertex="1">
          <mxGeometry x="860" y="390" width="170" height="20" as="geometry" />
        </mxCell>
        <mxCell id="677b7b8949515195-49" value="Feature 6" style="text;html=1;points=[];align=left;verticalAlign=top;spacingTop=-4;fontSize=14;fontFamily=Verdana" parent="1" vertex="1">
          <mxGeometry x="860" y="425" width="170" height="20" as="geometry" />
        </mxCell>
        <mxCell id="IcbmcfHUA_Raizw9NWa9-4" value="&lt;font style=&quot;font-size: 14px;&quot;&gt;Home page&lt;/font&gt;" style="text;html=1;points=[];align=left;verticalAlign=top;spacingTop=-4;fontSize=14;fontFamily=Verdana" parent="1" vertex="1">
          <mxGeometry x="620" y="90" width="220" height="27.5" as="geometry" />
        </mxCell>
        <mxCell id="a-97KIz0Rbxc-VoZZf3s-3" style="edgeStyle=orthogonalEdgeStyle;rounded=0;orthogonalLoop=1;jettySize=auto;html=1;exitX=0.5;exitY=1;exitDx=0;exitDy=0;" parent="1" source="a-97KIz0Rbxc-VoZZf3s-2" edge="1">
          <mxGeometry relative="1" as="geometry">
            <mxPoint x="135" y="590" as="targetPoint" />
          </mxGeometry>
        </mxCell>
        <mxCell id="a-97KIz0Rbxc-VoZZf3s-2" value="photo&lt;br&gt;" style="rounded=0;whiteSpace=wrap;html=1;" parent="1" vertex="1">
          <mxGeometry x="30" y="295" width="210" height="315" as="geometry" />
        </mxCell>
      </root>
    </mxGraphModel>
  </diagram>
</mxfile>
